<mxfile host="app.diagrams.net" modified="2024-07-15T04:37:42.890Z" agent="Mozilla/5.0 (Windows NT 10.0; Win64; x64; rv:128.0) Gecko/20100101 Firefox/128.0" version="24.6.5" etag="-MUpih1p26ukspmB9v-A" type="github">
  <diagram name="Page-1" id="-3nZNXLKRl6s4-3Z50Ub">
    <mxGraphModel>
      <root>
        <mxCell id="0" />
        <mxCell id="1" parent="0" />
      </root>
    </mxGraphModel>
  </diagram>
</mxfile>
